/* XPM */
static char *c3e1e0a522e14296a39897533c63ebadCQLPUtkrN24t5vNg[] = {
/* columns rows colors chars-per-pixel */
"64 64 233 2 ",
"   c #0E0A08",
".  c #150B06",
"X  c #1A0D06",
"o  c #150D09",
"O  c #1A0F09",
"+  c #1E1107",
"@  c #16100D",
"#  c #1D120C",
"$  c #1D1512",
"%  c #1D1715",
"&  c #211107",
"*  c #2C1807",
"=  c #23150C",
"-  c #2A160C",
";  c #26180E",
":  c #2B190E",
">  c #331C0D",
",  c #381F08",
"<  c #221711",
"1  c #251A13",
"2  c #2B1C13",
"3  c #251D1A",
"4  c #2B1F19",
"5  c #321E13",
"6  c #3A1F12",
"7  c #311F18",
"8  c #36200F",
"9  c #3A220E",
"0  c #2E2016",
"q  c #26201C",
"w  c #2D221B",
"e  c #342115",
"r  c #3B2315",
"t  c #3E2916",
"y  c #33241B",
"u  c #3B251A",
"i  c #36291E",
"p  c #3C291D",
"a  c #2E2521",
"s  c #2E2925",
"d  c #332621",
"f  c #382722",
"g  c #352A23",
"h  c #3B2C23",
"j  c #342D2A",
"k  c #3A2E29",
"l  c #3C3128",
"z  c #3D312B",
"x  c #3C3430",
"c  c #432514",
"v  c #4C2716",
"b  c #442917",
"n  c #4B2B16",
"m  c #422719",
"M  c #4B271C",
"N  c #432B1C",
"B  c #4A2C1C",
"V  c #572C19",
"C  c #532D1C",
"Z  c #47311D",
"A  c #4B311D",
"S  c #54311C",
"D  c #5A341C",
"F  c #5C391F",
"G  c #63351B",
"H  c #60381C",
"J  c #432D22",
"K  c #4C2D22",
"L  c #432F28",
"P  c #512E23",
"I  c #453125",
"U  c #4C3324",
"Y  c #43332B",
"T  c #4B342B",
"R  c #4C392D",
"E  c #533323",
"W  c #5C3624",
"Q  c #543A22",
"!  c #5C3A25",
"~  c #53352A",
"^  c #5C362A",
"/  c #533A2C",
"(  c #5C3A2C",
")  c #433531",
"_  c #4B3632",
"`  c #443A33",
"'  c #4C3A32",
"]  c #453B39",
"[  c #4A3B39",
"{  c #543C33",
"}  c #5B3D33",
"|  c #583D38",
" . c #613624",
".. c #653922",
"X. c #67392A",
"o. c #633C2D",
"O. c #723C27",
"+. c #623D31",
"@. c #6C3F31",
"#. c #5E412F",
"$. c #4D4039",
"%. c #544034",
"&. c #5B4234",
"*. c #54423B",
"=. c #5B443B",
"-. c #57483E",
";. c #5D493D",
":. c #654026",
">. c #64422C",
",. c #6B422D",
"<. c #644334",
"1. c #6C4434",
"2. c #674934",
"3. c #63443C",
"4. c #6B463B",
"5. c #644A3C",
"6. c #6C4B3B",
"7. c #734434",
"8. c #784936",
"9. c #74473A",
"0. c #734C3D",
"q. c #7D4B3A",
"w. c #6F543F",
"e. c #795339",
"r. c #534642",
"t. c #5E4742",
"y. c #534A46",
"u. c #5B4A43",
"i. c #5D4B4B",
"p. c #584E4C",
"a. c #634541",
"s. c #6E4640",
"d. c #644C44",
"f. c #6C4C42",
"g. c #634E4A",
"h. c #6B4E48",
"j. c #734D42",
"k. c #7B4E42",
"l. c #734F48",
"z. c #675346",
"x. c #6B5145",
"c. c #64524C",
"v. c #6A534C",
"b. c #6F584D",
"n. c #745144",
"m. c #7B5344",
"M. c #7F5E47",
"N. c #73544A",
"B. c #7B544A",
"V. c #76594C",
"C. c #7C5A4C",
"Z. c #654F51",
"A. c #665655",
"S. c #6A5551",
"D. c #6C5A54",
"F. c #6E5C5B",
"G. c #735752",
"H. c #7D5750",
"J. c #745B52",
"K. c #7B5D53",
"L. c #735C5A",
"P. c #7A5E59",
"I. c #6F605E",
"U. c #7D6156",
"Y. c #75645C",
"T. c #7C625C",
"R. c #6F6364",
"E. c #766461",
"W. c #7C6661",
"Q. c #7B6A63",
"!. c #786969",
"~. c #8C4E33",
"^. c #824C3B",
"/. c #825544",
"(. c #825A45",
"). c #8B5947",
"_. c #805649",
"`. c #845C4C",
"'. c #955D47",
"]. c #825C53",
"[. c #8B5F52",
"{. c #825F5A",
"}. c #8C604C",
"|. c #936148",
" X c #836255",
".X c #8C6353",
"XX c #8F6957",
"oX c #83645B",
"OX c #8B655B",
"+X c #86695C",
"@X c #8C6B5C",
"#X c #936453",
"$X c #926A56",
"%X c #986855",
"&X c #936C5B",
"*X c #9C725F",
"=X c #A06A50",
"-X c #A2735C",
";X c #816661",
":X c #836A64",
">X c #8B6C62",
",X c #846C6A",
"<X c #886E69",
"1X c #936C62",
"2X c #956F66",
"3X c #86726D",
"4X c #8D716B",
"5X c #947166",
"6X c #9B7562",
"7X c #94736C",
"8X c #9A756A",
"9X c #927A6D",
"0X c #9C7A6E",
"qX c #8B7571",
"wX c #887776",
"eX c #917771",
"rX c #937A73",
"tX c #9C7D73",
"yX c #937D7A",
"uX c #9C7F7B",
"iX c #A3786A",
"pX c #A27E72",
"aX c #9B8173",
"sX c #94837D",
"dX c #9A837E",
"fX c #A38274",
"gX c #A5857C",
"hX c #A9887A",
"jX c #8F8183",
"kX c #9B8986",
"lX c #A38B83",
"zX c #A28D88",
"xX c #AB9894",
/* pixels */
"w d n..XK 0 y i R gX5Xm y w g | } 2 w i p ( [.=.h e e h 4. .c 5 f p K.gXc.d 3 3 ) 3.~ 2 i 3 1 e A y 2 = : / m.K = 2 f ' pXhX/ 1 ",
"g p n.5XU 2 y g u.xXuXI 0 2 2 | | 2 2 y e U C.t.0 : 5 R 6X/.6 y h y N.gXD.a w g I { =.0 2 $ 2 t F t 2 = = 5.`.B = < y I tXpXU > ",
"h f <XuX/ 2 0 z c.xXkXr.d e = ~ K # @ # # y 4.*.2 - 2 &.hX}.B f i y D.dXA.w w g Y 3.=.0 = # ; r n e 1 = = U 4.J = O = h yXrXJ : ",
"a g 3XuX' # w k c.qXyX[ 2 : ; &.<.2 O # : u 0.=.2 : : ~ hX$XS e 0 w D.rXv.y d w h } h.2 # = = N { h = o # p ( h < # & y jXzXh 1 ",
"a z qXdXJ $ q g c.,XV.R e 1 2 J.`.r : : e U #X&.y e - R gX@XE y 2 1 f.'.0.e i g I a.F.1 # $ @ f =.z # @ o y &.p 1 = & 0 3XdXg 3 ",
"q k sXyXT w i y D.rXn.~ y w d W.C.e = = 2 *.lXV.e r 2 R qX+X/ g 0 # d.2XN.d s i k A.!.i i 3 % ) i.h < 1 1 p V.h < < = 4 D.J.y 3 ",
"1 i yXdXY 0 y : v.zX].{ Y k h ,X3.2 1 = O { zXJ.e p h I T.n.U y i = g.>XD.j a 4 k F.F.w w 1 1 k i.z 1 : ; e d.Y 3 < 1 w i.| u 2 ",
"; g 3XzX/ e e w %.yX3Xu.z p p s.M = < 2 : ;.lXP.r p y y &.n.~ y k 2 b..XQ.x w 3 ) J.F.0 1 1 2 R Z.) O > * = J 2 1 1 a j F.=.y 2 ",
"2 z Q.4X/ 2 0 a { 4XT.{ h h h 6.( 2 2 2 : { 0XC.u e y h f.>X/ y p 1 4.#XW.` i 2 { N.L.y 4 1 1 =.;XY X , 9 2 e - = w s a d.d.2 O ",
"1 z 3X XT 2 2 3 I ].P.' y h p ~ ( y 2 5 : { 1XJ.y 0 2 J K.m.J y y # { P.v.i w w R f.T.g w w 3 S.4Xy . > 5 = e e e i j w t.<Xp X ",
"2 w Q.:XY w 0 o R >XP.Y 0 h e ( 4.y 2 : = U [.U.y 0 2 y 4.@.E y 0 1 U 3.z.y 4 w T 4.:Xk 1 3 a !.kXf o = : & - 2 t t d w i.T.g # ",
"2 w Q.yX[ g i @ Y eX:XJ 2 y 2 ~ B.T 2 = = { .X].r y 0 5 E 7.K 2 i 4 ~ 3.g.d i 0 U 1.j.p 1 # 1 D.wXh . # # 1 e 2 e 9 0 3 c.E.3 # ",
"3 3 D.<Xf < 2 = Y P.J.y # 2 1 { B.T 2 : : ~ `./.t e 2 y ~ B.U 2 i 4 { &.{ d y y / `.P.d 1 = < v.P.Y # # < g Y p : : # 1 r.A.g < ",
"3 = o.+.4 . O # h a.^ 5 = 2 2 3.j.K 2 : = K 8.X.m e 2 e ( f.Y 1 0 i 5.>.} g g g { XXOXd a 1 # u.;.h # o # ] E.R : w = < A.R.$.w ",
"2 ; >.} y . O # R h.P : # = 2 9.k.U 5 2 2 r V C m e y e ( <.f 2 2 y 0.@.^ y d 0 R #XoXf d 1 @ ) T i @ o 1 u.sXg.3 q 3 g !.L.' 2 ",
"2 1 d.v.y X & = U K 6 & . . O 1.).I = 2 : 6 v E N r u e ( #.p 2 2 e B./.o.2 2 1 J %X Xy 0 < o 1 p 2 @ @ $ { 4Xc.3 3 3 g v.d.k @ ",
"1 # } j.u X O = p c 6 = X X - m.&XN X & = r v r N t 5 2 B E y 2 2 2 C.iXk.u y e K =X`.y y i 1 5 t 2 # 1 1 &.aXY.w 1 3 k E.=.k 3 ",
"O # N. Xu X & = t B r = O # : m.#Xr O = ; 5 r r e u e : B E 5 = 2 0 V.fXm.y y y N }.4.2 0 2 e r B 5 = 2 2 u.lXY.3 # 3 x E.=.u w ",
"3 4 oX4Xp # = = N A r : # = e C.$XJ ; 1 e r n m > 2 5 5 K ( t 2 2 y f.8Xj.2 2 2 J .Xo.1 0 e 2 r m 5 - 2 2 ;.T.v.w 3 0 ) S.| d 1 ",
"3 w :XsX` 3 1 1 J B m 5 = = r f.C.y ; e e B B r r 5 u y <.0.~ 2 1 2 n.iXf.2 2 = 5 ^ N : y p r v S e = 5 y } f.{ w 3 w x v.u.d @ ",
"a d Q.yXr.4 1 = J B E u = # 5 ^ o.u 2 u e E b r e e t t n.`.&.2 1 : 6.iXf.2 5 - < r > 2 5 e t F H t 2 5 y n.N.R @ < 3 k b.S.k 1 ",
"g a T.eX*.3 1 # u r v 5 = & 5 E P e = e e E n r r r N N V.m.( 2 2 2 f.tXU.2 2 : 1 e 5 5 2 p I >.>.N 2 2 y C.oX{ # = 1 k d.v.Y y ",
"g z W.,XY < # O - > m 2 . O & M ( u - e > E C v B A B J s.0.B = 2 2 j.XX9.5 < 2 & e r 5 5 t J 0.e.N p N u M. XR # = 2 k z.c.` Y ",
"w k S.L.[ 3 = # 5 N T 2 X X & P ( 5 & : > C V v r N e m 4.9.B 2 - : ( 1.^ N y = & t N r r r m 1.o.e Z U N M.#XB O = : p x.d.Y z ",
"g g d.n.{ 0 1 & 6 C B 2 # X & ( 0.e & 2 - v G n > e > m 4.+.B 2 5 5 E o.( p y : # e p e r r U 0.%XD A Q U e.'.v = = = y ;.z.` ` ",
"i y d.0.t 1 1 X & C +.2 O . & E 7.r # 2 - n ..D 8 e e m <.^ c 2 2 u s.n.U 2 5 & # p U r > 2 J 6.6.e : E Q D O.C - : & y =.;.z z ",
"y 2 &.&.r # 1 O > o.3.2 # O O P @.e # 2 2 m D n e r t U 0.o.c 2 1 2 3.P.U e : O = I N 2 = = 2 I I e = N S F O.D > > 2 i / { i 0 ",
"2 y 4.K.U $ O # p 9.s.0 4 $ 1 ~ 1.5 & 2 2 r D b 0 y e U 1.W t < 1 2 =.l.( : : 2 r >.( 5 1 1 5 y e 2 - r b :.~.G > e 2 h f.~ 2 2 ",
"2 2 s.2X{ 1 $ O Y j.3.1 w 3 $ J ^ : & 2 2 r B y 1 e e J o.<.N = 3 1 U n.2.2 2 0 / (.m.u 1 1 y u p = & 9 r W ~.D - 2 2 u | { 2 2 ",
"2 - s.2X=.3 $ O h G.d.$ q % @ y n - & : 2 u B 2 o 2 u U j.N.J O 4 1 K m.T = 1 w / (.6.2 3 4 2 e I 2 : r 5 6.'. .: 2 < 4 a.b.i # ",
": - m.8Xd.a 1 # z ,XS.3 3 < # e r O # & ; r o.u O 2 2 T C.H.J # 0 i } oX' ; < 2 T m.>Xi # 2 < B ( i p r > 2.#X1.y 2 4 h a.f.2 = ",
": > 8.OXu.3 % % ) :Xd.3 3 1 1 r m = @ = = r 0./ # 1 1 T 1X6XU 2 3 w f.P.` 1 ; : u 0. Xy 2 y 2 E 1.y y e : ~ `.5.0 = 0 Y N.+.= & ",
"= - 1.8Xc.1 % % z 3.K = 3 3 1 5 B 2 < = & r o.N = < 1 T pXiXU 2 1 4 <.m.J 1 2 2 u m.9.r - 2 2 ~ ( 2 0 e 5 U `.=.u 5 e I H.^ - & ",
"& & +.0Xr.$ $ 3 1 K ~ = $ $ < r D 5 = # & B o.r = < 1 J tXtXJ e 0 t 9. Xu = < 1 I .XB.p = = & ~ } 2 2 2 2 J n.{ = & 2 { fX(.& : ",
"& & =.;X[ o o % 2  .( = # @ = r n : # # = B o.t & # # y 3X4Xu 2 0 h  X>Xp = # 1 *.5X Xz 2 : O C P < # O # 2 } T # # 2 *.zX.X5 e ",
"+ # z.>X{ O O o = C o.@ . O # t / y # o # p / y = = 2 y yXdXh 1 4 f U.+Xp = # @ *.T.v.d < & & E o.e O # ; t 1.' # = = U fXXXc - ",
"O # ~ 4.T 1 1 + 5 P { o o # O u &.h O # @ w R y # 1 2 y P.>Xi 1 w h V._.2 @ $ $ ' f.E 5 = # ; 6.e.c : : 0 I _.~ 2 1 & N 9XXXn > ",
"= @ _ d.h 3 3 & u t._ # 2 1 % J ;.k = = 1 y &.y $ = : e a.3.2 1 4 y C.m.2 1 < 1 I <.B : < # 2 f.0.r = ; 0 *.tX5.0 2 2 I oXC.Z : ",
"2 X Y =.h 3 1 & 7 _ u $ 1 1 2 T g.x 2 2 2 y &.J 1 = e y t.} 5 1 1 2 z.K.7 # = O e f.( 2 0 1 i x.P 5 1 = # ' yXd.0 0 0 N `.6.N 2 ",
"2 # L { w $ = O < d 0 $ # < y =.,X] 1 2 = 2 J r y w Y Y c.a.e 2 1 1 d.].t + # o 2 { =.0 0 = y ( 5 2 # = ; ;.eXd.y i 2 2 ^ n.R 0 ",
"2 # R 4.4 # = & < 1 1 $ # $ 4 d.qXY = u p p { / J ' *.g *.d.5 # 1 w v.].U & = 1 e 4.| 1 0 2 y ( K L 1 = = { >XV.y 2 2 u f.+X{ 0 ",
"; O L S.d . X # = $ w $ 1 1 w P.wXd # g g u h.U.&.( =.g U K.u O 1 w J.k.K = = @ - o.} 1 1 2 y E K T 2 : = { OXJ.0 < = f >Xm.J 2 ",
"2 @ f u.w o o o @ < w 1 $ 1 w ,XjXg 1 w 1 u B.T.d.5.*.d h =.y # 1 1 z.].R 1 2 O e 0.d.1 1 2 5 <.4.T 2 - = R j.d.1 0 1 y K.4.U 2 ",
"g 1 Y *.a o o   @ $ 1 1 # @ 2 L.3Xg < 3 $ J T.L./ %.Y w ` u.2 = 2 3 D.>X_ 0 4 o y P.d.2 ; 2 2 ~ n.;.2 = ; { C.6.2 y 2 u 9./.U 1 ",
"w 1 R *.w @   o o 3 4 # $ # 3 v.h.0 3 3 3 ) ,X:XI I 2 w ` r.g 0 0 1 d.B.5 # = O d P.| = O = < / 6.5.2 : ; / `.<.: 2 2 J B.>XR # ",
"< 1 R { d $ o O @ 4 f $ 1 1 2 b.v.y 1 $ 3 r.kX:Xy k 1 2 r.i.' g w # ,.@.: . . # 2 } m # # # 2 ~ ( / : : = P /.~ & = = u V.oXY < ",
"2 2 { ( 4 @ @ @ # 7 u 1 4 # = { { 0 1 < w p.xXqXy w 0 f c.t.I i e & W X.y . O O J s.K X O = 2 E E { 5 2 : B 7.U O = 1 5 n.J.Y 3 ",
"2 2 5.j.y # o o = t J 2 2 # # p ~ 2 1 1 1 *.dXY.4 3 4 i ' { p = 2 = ~ 3.J O = = U 4.^ # . . . m W / = 2 : v ..B = 2 1 e &.3.f 2 ",
"; - 5.1XJ 5 2 2 2 v B 5 y I y E ( 0 1 2 w %.aXY.i 2 0 y d.&.p 2 1 = ~ j.R O # ; J 9.0.: # X = S ,.B X = ; b C : # = O = r n 5 2 ",
"= 2 3.+XJ 2 e u u ^ ! N N I N 7.7.u 2 0 0 %.9XD.0 1 0 k d.=.h 2 # 1 J.C.~ & = 2 J 1XK.2 # X = W G > O = 1 e c - O = # O 6 N - = ",
"1 2 R 3.r O : 5 N /.8.W U / m 7.q.t 2 y w R 5.=.i 2 y k =.*.h 2 1 4 P. X~ = 1 2 R 7XP.e = = : 1.m.N ; 2 0 y n > . . # = 6 E r = ",
"# 1 { P - & : & 5 k.k.o.! 2.U ).%Xm 2 y k Y / I i 0 g k &.=.d < w w J.eXu.w 3 3 R @Xf.2 & = : 4.`.p 2 i y N B 5 # O = : D ,.~ : ",
"& = J n - O = O - m.`.m.! >./ 6X*XJ 2 y g ' 3.Y 1 2 w d %.;.g 2 w w d.U.S.a 3 1 R &X].e & # = ( 8.u 2 p e B m 5 @ O & 5 7./.>.: ",
"= = B +.N & = O 5 &X&X$Xo.2.2.aXfX{ w 2 w -.+X{ 2 2 2 i T ;.z y i w v.eXY.w y 2 J _.8.: = = = P 1.u ; u e Z B 5 # # & e n.q.W = ",
"= & } l.K = = = y 8XhX&X1.6.&.aX0X' g f y &.@X{ = 2 u i R ;.z y g g F.dXE.w 2 1 r 7.1.= X O # J f.h 2 e : B  .B 2 2 = p m.q.m # ",
"- : 3.].~ 2 2 = 5 5XhX X<.&.U K.XXp i i 1 T $X( 2 e t y %.;.k i w g u.,XY.g w 2 T `.h.2 X X & ( f.y 1 e : S ^.E 2 2 # N /.^.B : ",
"2 2 { oX~ e 2 2 y >XgXV./ U R 6.6XU 2 0 ; n ).o.p u u p 5.x.Y z f y { x.c.g i 2 / ).@.: = O & <.l.5 1 e - W %X! - 2 - U n.1.B : ",
"0 i v.8X/ 2 2 1 u @XkX3.N J Y *.{ 2 = u t c  .S p t e h 5.5.z Y h 0 =.f.R a w = N ^.7.2 & X # <.k.5 = 2 : E ).! - > e J 3.+.c > ",
"0 0 d.2X{ e 2 = h +XK.J y y y h y : = u Z S X.V 6 t y y =.d.z z h y ;.v.I 3 0 2 U B.3.2 = X # W 7.5 X 1 2 v  .B : e N / 6.4.B e ",
"i 4 ;.:X5.0 2 = N B.C.T y 5 u i y : - r m >.|...> u u J N.5.h g f y h.T.{ w 1 1 ` oXh.2 2 # < K 9.e X = : c D r 2 y p / 0.1.U 2 ",
"d w { +X5.: 2 2 U (.C.I 0 2 p y u 2 = t t >.'.,.: 2 y N 5.3.f g i y b.yXv.g a 3 y.,Xd.4 w 1 # t W : # = = c B e 2 p y I <.0.~ 2 ",
"g d ;.7X*.= 2 y #.&X+Xk w 0 2 r N 2 = t y w.-Xn.y 0 4 g d.N.z 3 w 2 x.kXS.j s 3 r.3XI.w g < = 5 N - & = = r B 5 = p p N 4.K.U = ",
"k g G.sX-.0 1 2 &.0XlXY 2 2 2 U E 2 p p y 6.*XV.h i a k a.h.i $ ; : N.uXi.w 3 # ] jXR.3 w 1 = r B = = = = r 1.J # 2 e T B.{.U = ",
"s j T.@XR w 0 e / 4XdXY e y 0 ~ o.2 g h 0 3..Xh.i 1 w h 4.+.5 = e e n.7Xg.w % @ z !.g.2 0 1 < 5 B 2 1 2 : N m./ & 2 y U [.8X/ 4 "
};
