/* XPM */
static char *_3afdd896b704858a2195b84c8c7052aVWtU9c74M26w3iHc[] = {
/* columns rows colors chars-per-pixel */
"64 64 64 1 ",
"  c #343434",
". c #3C3C3C",
"X c #434343",
"o c #4C4C4C",
"O c #545454",
"+ c #5B5B5B",
"@ c #646464",
"# c #686867",
"$ c #6B6B6B",
"% c #70706F",
"& c #747474",
"* c #787777",
"= c #787877",
"- c #777878",
"; c #7C7C7C",
": c #807F7F",
"> c #7F8080",
", c #838383",
"< c #888887",
"1 c #888788",
"2 c #8C8C8C",
"3 c #8F908F",
"4 c #8F9090",
"5 c #909090",
"6 c #939292",
"7 c #939393",
"8 c #939493",
"9 c #939394",
"0 c gray58",
"q c #989797",
"w c #989897",
"e c #979798",
"r c #989798",
"t c #979898",
"y c gray60",
"u c #9B9B9B",
"i c #9C9C9B",
"p c #9B9B9C",
"a c #9C9B9C",
"s c #9B9C9C",
"d c gray62",
"f c #9FA09F",
"g c #9F9FA0",
"h c #9FA0A0",
"j c #A0A0A0",
"k c #A3A3A3",
"l c #A3A4A3",
"z c #A3A4A4",
"x c #A4A4A4",
"c c #A7A7A7",
"v c #A8A8A7",
"b c #A7A7A8",
"n c #A7A8A8",
"m c #A9A9A9",
"M c #ABABAC",
"N c #ACACAC",
"B c gray68",
"V c #B1B0B0",
"C c #B4B4B4",
"Z c gray71",
"A c gray72",
"S c #BCBCBC",
"D c gray74",
"F c #C4C3C4",
/* pixels */
"&;$;,0yy2-@@@;dj7<,;-$+@@@+-dx7d,&@++;d2,&$&@@++@23<2d2-&&2&&@$;",
"$-;0yxy0<-$&0mmd7mj2-++&&&&0sx07<&++$7j0,;$$@OO+,07;-2-@+@;$Oo+&",
"2rVVmj2<--$&BVd32Bj<-+@---,7772,&@oO$2y7,;$@@$&2d72&$,&+O+@O.X$0",
"mjZV00;2--@&xf7;-70;&$-,<;-;2<,$++O$;77d7,$@;7djy2-$+$&;-&@o @jD",
"a0gB0>-2,;@-y72&$&-;,2<&<,<-2<-$+$$&;<0de;$$7jdy2<@XX+-<-&-,;ZZV",
"72&;727ny227j<;&@&2j02;$,270yy,&$$&<222y022yBxy2;$O.O@;,,,2y7VgB",
"2,-;ZZBnj7y0j0<;$,yxy2&+&2dj072&$+-<7ejzd0jxj02,&OXo&yxd0dmm0x0j",
"y,<2dxxmj2y2sp2-@;007<-+&dj0<&--;&0jjjjxxdjyy2<$OXX$20yymjx0,70d",
"0<70dy072,72dy2&$-2<<;-+-x0,;@$-72xhy00y722;;&&$oXo;<90sd0y22ddy",
"&&,77277,$&,d7,&&<200,&+;my<&$&-27mydy72,&$&,;$+Xo@2220y,,<0y0,-",
"&$&2727<-$@&<470yjjd2-$$&d02&&&$&2j0072<$+O@77&+XO;xmmxZyy7y71;-",
"+@$&,;2>&@+$&<yxxmxy2<$$&222&&&$&2d22<<&OXO,jd,$@-VZVxjVnj072;$+",
"O+$$&$&&@++@$;xBxmxd7j0;;2077,&&;072,2<$OX+7jy222dFVBxjjxj2;-@OO",
"&#@+@@$@+O@&<ymxdyy0dxjy7q7<y72<22,-&*$OO@,xy07yjxAVmjd7y7<&@$@&",
";&$+@&,-$+&,ijxmjgd0yy8yyy72y72,2;-$@+OO@-0m072xmdmZBj0<7,&@O$@$",
"2<2<707<-$7jVjq0ddy707;yBVl22,2;;@+oooO@20ymj0yMjyjmjy2-<,$++&&&",
":20070222<xBBy212yxjd2$yxmy<&-<,$OXoo+&0j22jMydjdy0072,-;2;,2;&@",
",2272,,<22yjx72;;,dd0<$djj2-;72,+O+@$-jm07ymVxxy7272;&&&&2yyd<<-",
"yxd02&0yd07yd2;&;;d00&+7d2-&2xx7<<y,$-jjyyBBBjmmj2;,$@@%$<xj7$&y",
"jy27<,jh7<<22,;-;,02<$O-7&&;0jVjy<7xdyjdyxmxxyjxxd,;$@@,22xd7,yA",
"jj20jjmx7,-<<;;-,,2,-@+&072yj0xji,;dmjmZVmxyy2ay202;$+@70dxd07jB",
"j0-,ydy2<2<022-$$&&$+@$&,yxxd77By22jxddZxjjy7<<2;;,;&@$pyyyjZmBm",
"y7,<mx0<2BBx0,$@@&&&@$$&-0Vx02,jx0077<7j02702<&,&$,;&@&jyyydxy0d",
"xy2,0ddymVBd<@oO$<2<$$@&2djd72<70y002&,7<&-0;&@&;;2;&-2mjy00j2yj",
"By2<7xmmmxj7<$$2mx00$@&,27722<,;-272,$&,;-&2,&@@$<y2;,ybxy72yyBm",
"jd2,2dmjd72270wZDx2;++dyd77,;;,&$,07;$;d2;$,;-$$@<yd77jdy2;;hhxy",
"77,2yjxy0,,dVmdBDV2$O$Dmd72&&&&$$&;<;;7my2&,27-&$0jx07By2<$$jxdd",
",<;;,2727,&0Bj<7ZZmy&<Axvjj7=$O+@$$&,29j0-@<y0;;,mjjd7xm2:$@0jd7",
">&&--&222-&rxy*8DZd<-dVmjy022<@++$&&,<222-$dd0&<xZVmj72yy2;$;yy2",
"&&&&$#&<<,;702;0mnj0&2AVxy2,,;&&,&&$;;<2<&-y8&$2Bjyx02-<22-@$7y<",
"&$@+XX+-2;,2<;;27d2,-dDBj02;-$-,j,-+@$;,;&-7<+&xBd002<&&--@O@27;",
";&@+oO;2<;-<,;&&&7yy,072277,;$-,0<$@$-,,-$$&@+2j7--,,&@@&+oO,f02",
",&@++;d2,&$&@@++@23<2d2-&&2&&@$;&;$;<yyy2-@@@;dj2<,;-$+@@@+-dx7d",
"<&++$7j0,;$$@OO+,07;-2-@+@;$Oo+&$-;0yxy0<-$&0mmy7mj2-++&&&&0sx07",
"&@oO$2y7,;$@@$&2d72&$,&+O+@O.X$02rVVmj2<--$&BVd22Bj<-+@---,7772,",
"++O$;77d7,$@;7djy2-$+$&;-&@o @jDmjZV00;2--@&mj7;-70;&$-,<;-;2<,$",
"+$$&;<0de;$$7jdy2<@XX+;<-&-,;ZZVa0gB0;-2,;@-y72&$&-;,2<&<,<-2<-$",
"$$&<222y022yBxy2;$O.O@;,,,2y7VgB72&;727ny227j<;&@&2j02;$,270yy,&",
"$+-<7ejzd0jxj02,&OXo&yxd0dmm0x0j2,-;ZZBxj7y0j0<;$,yxy2&+&2dj072&",
";&0jjjjxxdjyy2<$OXX$20yymjx0,70dy,<2dxxmj2y2sp2-@;007<-+&dj0<&--",
"72xhy07y722;;&&$oXo;<90yd0y22ddy0<70de072,72dy2&$-2<<;-+-x0,;@$-",
"27mydy72,&$&,;$+Xo@2220t,,<0y0,-&&,77277<$&,d7,&&<200,&+;my<&$&-",
"&2j0072<$+O@77&+XO>xmmxZyy7y71;-&$&2727<-$@&<470yjjd2-$$&d02&&&$",
"&2d22<<&OXO,jd,$@-VZVxjVnj072;$++@$&,;2,&@+$&<yxxmxy2<$$&222&&&$",
";072,2<$OX+7jy222dFVBxjjxj2;-@OOO+$$&$&&@++@$;xBxmxd7j0;;2077,&&",
"22,-&*$OO@,xy07yjxAVmjd7y7<&@$@&&$@+@@&@+O@&<ymxdyy0dxjy7q7<y72<",
"2;-$@+OO@-0m072xmdmZBj0<7,&@O$@$;&$+@&,-$+&,ijxmjdd0yy8yyy72y72,",
";@+oooO@20ymd0ymjyjmjy2-<,$++&&&2,2<707<-$7jVjq0ddy707;yBVl22,2;",
"$OXoo+&0j22jMydjdy0072,-;2;,2;&@;20070222<xBBy212yxjd2$yxmy<&-<,",
"+O+@$-jmy7ymVxxa7272;&&&&2yyd<<-,2272,,<22ejx72;;,dd0<$jjj2-;72,",
"<<y,$-jjyyBBBjmmj2;,$@@%$<xj7$&yyxd02&0yd07yd2;&;;d00&+7d2-&2xx7",
"y<7xdyjdyxmxxyjxxd,;$@@,22xd7,yZjy27<,jh7<<22,,-;,02<$O-7&&;0jVj",
"i,;dmjmZVmxyy2yy202;$+@7ydnd07jBjj20jjmx7,-<<;;-,,2,-@+&072yg0xj",
"y22jxddZxjjy7<<2;;,;&@$pyyylZmBBj0-,ydy2<2<022-$$&&$+@$&,yxxd77B",
"x0077<7j02702<&,&$,;&@&jyyydxy0dy7,<mx0<2BBx0,$@@&&&@$$&-0Vx02,j",
"0y002&,7<&-0;&@&;;2;&-2mjy00j2yjxy2,0ddymVBd<@oO$<2<$$@&2djd72<7",
"-272,$&,;-&2,&@@$<y2;,ybxy72yyBmBy217xmmmxj7<$$2mx00$@&,27722<,;",
"$,07;$;d2;$,;-$$@<yd77jdy2;;hhxyjd2,2dmjd72270wZDx2;++dyd77,;;,&",
"$&;<;;7my2&,27-&$0jx07By2<$$jxdd77,2yjxy0,,dVMdBDV2#O$Dmd72&&&&$",
"@$$&,29j0-@<y0;;,mjjd7xm2:$@0jd7,<;;,2727,&0Bj<7ZZmy&<Axvjj7=$O+",
"+$&&,<222-$dd0&<xZVmj72yy2;$;yy2>&&--&222-&rxy*8DZd<-dVmjy022<@+",
",&&$;;<2<&-y8&$2Bjyx02-<22-@$7y<&&&&$#&<<,;702;0mnj0&2AVxy2,,;&&",
"j,-@@$-,;&-7<+&xBd002<&---@O@27;&$@OXX+-2;,2<;;27d2,-dDBj02;-$-,",
"0<$@$-,,-$$&@+<d7--,,&@@&+oO,f02;&@+oO;2<;-<,;&&&7yy,072277,;$-,"
};
