/* XPM */
static char *ce0c719c146c4e86d183c7c04b2a006b6vwPJMpmzi7u9DAZ[] = {
/* columns rows colors chars-per-pixel */
"64 64 58 1 ",
"  c #5E5B56",
". c #5F5D58",
"X c #615E59",
"o c #65625D",
"O c #68655F",
"+ c #676560",
"@ c #696661",
"# c #6D6A64",
"$ c #706D67",
"% c #726E69",
"& c #75726C",
"* c #78756F",
"= c #7A7770",
"- c #7B7872",
"; c #7C7973",
": c #7E7B75",
"> c #7F7C75",
", c #807D76",
"< c #837F79",
"1 c #838079",
"2 c #848079",
"3 c #87837C",
"4 c #87847D",
"5 c #88857F",
"6 c #888680",
"7 c #8B8780",
"8 c #8B8883",
"9 c #8B8983",
"0 c #8C8983",
"q c #8D8A84",
"w c #8F8C87",
"e c #908C86",
"r c #928E86",
"t c #908D88",
"y c #938F88",
"u c #949087",
"i c #93908A",
"p c #96928A",
"a c #99958D",
"s c #9C988F",
"d c #9B9790",
"f c #9E9A92",
"g c #A29D95",
"h c #A49F98",
"j c #A4A097",
"k c #A6A199",
"l c #AAA59D",
"z c #ADA89F",
"x c #ACA7A0",
"c c #AEAAA1",
"v c #B2ADA4",
"b c #B4AFA8",
"n c #B4B0A7",
"m c #B6B1A9",
"M c #B9B5AD",
"N c #BCB8AF",
"B c #BBB7B0",
"V c #BDB9B0",
/* pixels */
" .oooooooX   XXXoXXooooooXXooO+++#%%#@##&##OooooX.X.X  ooooX+&*<",
".++O+++#####Oo###+O+@@@+@Oo+##@@+@#$#++++#######+o++X Xo+++Oo#%r",
" ###########+O##++@####+@+O+######+#####+#+O+++++##@o+@+####O#%q",
".@%$############++##@++@++#%$%%%%%$#####OOoO++@#$%%#+#######@@&6",
"o#$&&&&$$$$$$##@@##++@%&%&&&&&&&&&&%%%#+++#%%%%%%%%#@#$$$$$$##&,",
"o%$%&&&&%%%%%#@#$$##$%%&*==*&&*=*=*&&&%%%%&&&&&&&%%##%%%%%%&&%%*",
"@&&&%#&&&&&&%#%&&%#&***&&===--=:-====*&&&&&&&&&&&&&$#%&&&&&&**%%",
"#&=*&&&&&&&%%&&&&&&&======-:>>::::::;=*&&&&&&&&&&&&&$%&&&&*===*=",
"%&;==***&&*%&==*****;;;::><<<11<<<>:::=************&%&&&**==--=;",
"&*=&&==**;;&=;-==;:-=*:<<11<<233111<,:;======*====&%&&*&&*=;::*=",
"&--==&&=:,;&-;;;;:<<>=><233<<<333332<,:;;*&&*&;;;;&&**:=&&*;::&:",
"*:,,>;*=,,;=;::::,<1<:23346666643332:::;=*==%&;:;&#&**,,:;*;,:%>",
"*,1<,,;**,--,,,,,,,<,:3455999996555<=;-=;:,;&%$%%&-;*;<<<,:=-**1",
"-,2<<,:;*&&*=:,<,:>:;;35660qqqq9665<,1<<<<,,,:=*->>;:<2321,;,<,3",
"-;;-;;:,=-;>,,,>;,2,<35560936ttwq05<35322222222<,>:2222<:2<;1225",
":,::,2342,:<<<<<235555632343qtwttr6266555555532,2335552;;33:<325",
",32565555555<<5655555665,30q069titq59006555552<25555606,2062<236",
"<5250066000330000000000056rtr00ttq600qqq000532560000qqqqqq60q2<5",
",<250urrrrrrq0rrr0000rr630ruurqtt66q0rrtrr0550q00r0rrrrttr00r030",
";;rruuuuuuuituuurrrrrrr53rruurrpu0rrruupur6rrrrrrrrtuuuuurr09ruf",
",,uaaaaaaaaaapputtrrrrtr50rurraau0tuuuaaurrruuutrtuuuaaaauauuruj",
"2:uffffffffsauuuaauuuuupur0qraaatuuuaauuruauuuauuuuaasdafffaauuj",
"3,rsggggggfdfffffdaapppaaaaaffaaffpuaauudfffdaaapuaggffaggfaaapf",
"55aafggjjjfgggggfaruaaaffffgfffaddtaauaffffdur0rtufggggfggfsfffa",
"00ffaafjjjghjjjhgfar0afffgggggggffuuuafgffggfsapaafjjgggjjhggffg",
"ruggggfjlghjkjhjjgfft0afggjjjhgggggaafgggggggggffagjljjkljghjggl",
"rajjjjglxjkllkhlljgggaruuafghgggggggfgggggggggggffjggjlxxjlllljl",
"ufjjjjjxxllxxlgllljjgggfffghgjggggggggggjjgggggggfjjjjjlxlxxxljz",
"ugxljlxxlllxzjjzllgfghjjjjjjgljhhhggjjgjljjghhhhhggjljlxcxcccljv",
"ajvvvvvllzlxxljxzjggjlllllljgjjjjjhgljgggllljjjjjjlllljxxxvvvxjv",
"almncvxxxxlxxljxzljjllllllllljjjjjjgljjjggjjljjjjjllxljjlxxvvxlv",
"flMnxxxvvxfgjzlllljfgllllllllllllllgljllljjglllllllllzljggghjlvv",
"fxMmmmvvvxgjgjxxzhffdjzzzzzlllllllljllllllllllllzxxzllzlllzxxvMv",
"fxMMmmbvvxljjgxxxggjflllzllzzllllzzlxvxxxxxzllzllzzlllzxxvvvvbmx",
"axMMMmbvxvvxlglvxlggglzzzzzzxzzzxvvzxvvvvxvxzzzzzzzzzzzzvvvvvbMv",
"ajvxvnvxvvvvxcvvvxlzzvxljlzzxzxvvmmvxnvvvllxzljhjjllzzzvvvxxxvml",
"ajbvxvvvmmvvlxzjxvvvvxljjjjlxxvvmmmbvMMnvzhgggggghjlzllvbbvxxznj",
"ajbvxzbvvvvvxxxglvvxllxvvxjlvvvnmmmvnmMMvvxxzzzxxvxzzzjxbbvvxzmg",
"pgvvxlzzxxvxgxxgjvvllvmMMmxxvnnmmmmvnvxvvvxxzzxxvvvxzzljlxvvxzng",
"aglzjgzvvvvxxjggvvbxxmMMMMmxlbmmmmmvMnvvvvzzzzxvvvvxzzzzljxvvzbf",
"psggaushjjlvmzjlvvvxxmMNMMMmxvmmmmvnMmmvvvzzzzvvvvvxxxzzzllvvvns",
"uafsasafgsjxvvvvvbbzxmMBBBVMnvmmmmmMMmnnvvzzzxvbvvvvvxvvvzjvvvns",
"uafglljjfglxvvbvxxllvmMBBVNMnxmmbvMmvbvvvxxzzxvvvnvnbxnmmnvvbzbf",
"uajllllljxxvvvvvvvjlvMMMBBMmvvMMnnMnvbvvvxxzzxxbvvmmmvMMMmmnvxmg",
"ugjlllljjvvvvbvvvnvlxmMMMMMmmMMvxMMmbmvvxzllzzlnvvmmMmvnMmmvlxmg",
"ujgggjlggvvvvbvvvvnvxcmMMMMMvMMxlvMvvvvvxzzjfhlvvvbmmMmxvMmvxxmj",
"tghjjzxlxvvvvvvbvvvmvxvmMMMMmMmxxlmvvvvvxzzla0fjlnnbmmMvvmmnvxnh",
"tgxvzvbnnvvvvvbbvvvmvlkxvMBVMmvvxxmmmnvxljjgusgggvMmnmmmvxvmbxng",
"thxxzlvvxvvvvvbmbnvzljjvmMBVMmxcMMMmmbvxljguujxxlvMMMMMmlmxvmvmg",
"thzzxllxxvvvvvbvvmvvmxxmMMMBMmvxMMMMmvxzzzzfghlzlvMMMMMclxvxbxng",
"thlxvzlxvvvvvvvvvbmMMzvMMMMMmMBMMMMmmvxgjzzjjjjjjvMMMMMvljjxvxmg",
"thllvzzzzzxjxvnnmmmMMvvMMMMMnvMMMMmmmvlgghlzjzxzlbmMmvvvlaajvvmf",
"tjzlljgjlggjxvvnmmmMMxcnmMMmnxmMMmmvvzjllggljxvxjlnmcxvbvjfahvns",
"uhjhgjjgjlhxvvvnmbvMMvvmvvmvvlxMmmvljllzljlllxvxllvvxvvlgxxjgxva",
"ugfjlxxjglzxvvvvmvvMmMMBMxxvmvmmmbzglzzzljlgllljlxbvvvvlgxvllvna",
"tggglxxjjxzxvvvvbvbmmmMMMMxxmmmmvvzglzzzjjlggjzlxvmnvvvvxxvxxvma",
"tgzhgjjjzvzxvvvvbvnmmmMMVMmvmmmnxxxgjlzlgjzllvvvxxxvvvvxxxvvvvNj",
"thllllzxxxzzxvvvbvxmmmmMVMnmMnvvzlvljjjjglzzvvvvvvvvvvxjfzzzxvNl",
"yhgfllghlxzzvvvvnbxvmnvMVMMMmnvvxgxvxjgjlzzzxvvvvvbmvxlfgzxljlNv",
"ujjfjjsgglzzvvxbMmvvvvmNNMMmnvvvvhgggffffflzzvvvxvvbvvlggzvxljmM",
"pzvvvvzzzlzxxzvMmllvbvMMMMmbxlxvvxlllzvvvgsgglbvxvvvxbxgglvvzjbV",
"avvvvvvzzzlvvvnmvjgvvlxvbvllxvvbnvvxvbnmmbzhaazzxvvzxbvjjjxxllvV",
"ulvvvvvzlljjzzxxllhjllzzlljlxzllzxvvvvbmmbvvzlllxvvxxvjjlhjllvvn",
"auaasfaaauurruaaaasgjjlllgfaauuuuuaasffgffsssffsffsaaadggfsfffff"
};
